# xmcd CD database file
#
# Track frame offsets:
#	182
#	15170
#	30617
#	45840
#	61865
#	77692
#	93940
#	107827
#	124060
#	139210
#
# Disc length: 2037 seconds
#
# Revision: 3
# Processed by: cddbd v1.5.2PL0 Copyright (c) Steve Scherf et al.
# Submitted via: CDex 1.79
#
DISCID=6e07f30a
DTITLE=Mark Nesler - I'm Just That Way
DYEAR=1998
DGENRE=Country
TTITLE0=Doing What's Right
TTITLE1=Used To The Pain
TTITLE2=The Part I Don't Understand
TTITLE3=Slow Down
TTITLE4=I'm Just That Way
TTITLE5=Baby Ain't Rocking Me Right
TTITLE6=Going Crazy
TTITLE7=It's Nothing But A Heartache
TTITLE8=Love Her For Me
TTITLE9=Not As Simple As That
EXTD=YEAR: 1998
EXTT0=
EXTT1=
EXTT2=
EXTT3=
EXTT4=
EXTT5=
EXTT6=
EXTT7=
EXTT8=
EXTT9=
PLAYORDER=
